<mxfile host="app.diagrams.net" modified="2021-06-02T11:18:06.860Z" agent="5.0 (Windows NT 10.0; Win64; x64) AppleWebKit/537.36 (KHTML, like Gecko) Chrome/90.0.4430.212 Safari/537.36" etag="Lcz4hFazzox4l8o02avA" version="14.5.4" type="github" pages="2">
  <diagram id="20ip4_Ek6uK4f86xIrN_" name="Data-Flow Diagram">
    <mxGraphModel dx="1209" dy="627" grid="1" gridSize="10" guides="1" tooltips="1" connect="1" arrows="1" fold="1" page="1" pageScale="1" pageWidth="827" pageHeight="1169" math="0" shadow="0">
      <root>
        <mxCell id="0" />
        <mxCell id="1" parent="0" />
        <mxCell id="DNZP7xRx3pJeG5CFFN4x-2" value="" style="group" parent="1" vertex="1" connectable="0">
          <mxGeometry x="80" y="340" width="120" height="64" as="geometry" />
        </mxCell>
        <mxCell id="DNZP7xRx3pJeG5CFFN4x-3" value="User Credentials" style="rounded=0;whiteSpace=wrap;html=1;strokeWidth=2;" parent="DNZP7xRx3pJeG5CFFN4x-2" vertex="1">
          <mxGeometry y="2" width="120" height="60" as="geometry" />
        </mxCell>
        <mxCell id="DNZP7xRx3pJeG5CFFN4x-4" value="" style="endArrow=none;html=1;strokeWidth=3;strokeColor=#FFFFFF;endSize=7;startSize=10;rounded=0;jumpSize=3;" parent="DNZP7xRx3pJeG5CFFN4x-2" edge="1">
          <mxGeometry width="50" height="50" relative="1" as="geometry">
            <mxPoint x="120" y="64" as="sourcePoint" />
            <mxPoint x="120" as="targetPoint" />
          </mxGeometry>
        </mxCell>
        <mxCell id="DNZP7xRx3pJeG5CFFN4x-5" value="" style="group" parent="1" vertex="1" connectable="0">
          <mxGeometry x="660.5" y="290" width="140" height="64" as="geometry" />
        </mxCell>
        <mxCell id="DNZP7xRx3pJeG5CFFN4x-6" value="User balances and transaction history" style="rounded=0;whiteSpace=wrap;html=1;strokeWidth=2;" parent="DNZP7xRx3pJeG5CFFN4x-5" vertex="1">
          <mxGeometry y="2" width="140" height="60" as="geometry" />
        </mxCell>
        <mxCell id="DNZP7xRx3pJeG5CFFN4x-7" value="" style="endArrow=none;html=1;strokeWidth=3;strokeColor=#FFFFFF;endSize=7;startSize=10;rounded=0;jumpSize=3;" parent="DNZP7xRx3pJeG5CFFN4x-5" edge="1">
          <mxGeometry width="50" height="50" relative="1" as="geometry">
            <mxPoint x="140" y="64" as="sourcePoint" />
            <mxPoint x="140" as="targetPoint" />
          </mxGeometry>
        </mxCell>
        <mxCell id="DNZP7xRx3pJeG5CFFN4x-8" value="User" style="rounded=0;whiteSpace=wrap;html=1;strokeWidth=2;" parent="1" vertex="1">
          <mxGeometry x="100" y="50" width="120" height="60" as="geometry" />
        </mxCell>
        <mxCell id="DNZP7xRx3pJeG5CFFN4x-12" value="" style="curved=1;endArrow=classic;html=1;fontSize=6;edgeStyle=orthogonalEdgeStyle;exitX=1;exitY=0.5;exitDx=0;exitDy=0;entryX=0.5;entryY=0;entryDx=0;entryDy=0;entryPerimeter=0;" parent="1" source="DNZP7xRx3pJeG5CFFN4x-8" target="lDetADTVNN6YPPrge81u-1" edge="1">
          <mxGeometry width="50" height="50" relative="1" as="geometry">
            <mxPoint x="200" y="72" as="sourcePoint" />
            <mxPoint x="278.96000000000004" y="162.60000000000002" as="targetPoint" />
            <Array as="points">
              <mxPoint x="300" y="80" />
            </Array>
          </mxGeometry>
        </mxCell>
        <mxCell id="DNZP7xRx3pJeG5CFFN4x-14" value="Credentials, PIN," style="edgeLabel;html=1;align=center;verticalAlign=middle;resizable=0;points=[];rotation=0;labelBackgroundColor=none;" parent="DNZP7xRx3pJeG5CFFN4x-12" vertex="1" connectable="0">
          <mxGeometry x="-0.169" y="-11" relative="1" as="geometry">
            <mxPoint x="18" y="-11" as="offset" />
          </mxGeometry>
        </mxCell>
        <mxCell id="DNZP7xRx3pJeG5CFFN4x-13" value="" style="curved=1;endArrow=none;html=1;fontSize=6;edgeStyle=orthogonalEdgeStyle;exitX=0.5;exitY=1;exitDx=0;exitDy=0;entryX=0;entryY=0.5;entryDx=0;entryDy=0;entryPerimeter=0;startArrow=classic;startFill=1;endFill=0;" parent="1" source="DNZP7xRx3pJeG5CFFN4x-8" target="lDetADTVNN6YPPrge81u-5" edge="1">
          <mxGeometry width="50" height="50" relative="1" as="geometry">
            <mxPoint x="250" y="150" as="sourcePoint" />
            <mxPoint x="230" y="210" as="targetPoint" />
            <Array as="points">
              <mxPoint x="160" y="150" />
              <mxPoint x="30" y="150" />
              <mxPoint x="30" y="446" />
              <mxPoint x="341" y="446" />
            </Array>
          </mxGeometry>
        </mxCell>
        <mxCell id="DNZP7xRx3pJeG5CFFN4x-15" value="Feedback" style="text;html=1;align=center;verticalAlign=middle;resizable=0;points=[];autosize=1;rotation=0;" parent="1" vertex="1">
          <mxGeometry x="125" y="150" width="70" height="20" as="geometry" />
        </mxCell>
        <mxCell id="DNZP7xRx3pJeG5CFFN4x-16" value="" style="curved=1;endArrow=classic;html=1;fontSize=6;edgeStyle=orthogonalEdgeStyle;exitX=0.026;exitY=0.726;exitDx=0;exitDy=0;exitPerimeter=0;entryX=0.25;entryY=0;entryDx=0;entryDy=0;" parent="1" source="lDetADTVNN6YPPrge81u-1" target="DNZP7xRx3pJeG5CFFN4x-3" edge="1">
          <mxGeometry width="50" height="50" relative="1" as="geometry">
            <mxPoint x="253.19999999999993" y="245.5" as="sourcePoint" />
            <mxPoint x="150" y="300" as="targetPoint" />
            <Array as="points">
              <mxPoint x="110" y="223" />
            </Array>
          </mxGeometry>
        </mxCell>
        <mxCell id="DNZP7xRx3pJeG5CFFN4x-17" value="Credentials" style="edgeLabel;html=1;align=center;verticalAlign=middle;resizable=0;points=[];" parent="DNZP7xRx3pJeG5CFFN4x-16" vertex="1" connectable="0">
          <mxGeometry x="0.44" y="-1" relative="1" as="geometry">
            <mxPoint x="-18.979999999999997" y="15.299999999999997" as="offset" />
          </mxGeometry>
        </mxCell>
        <mxCell id="DNZP7xRx3pJeG5CFFN4x-18" value="" style="curved=1;endArrow=classic;html=1;fontSize=6;edgeStyle=orthogonalEdgeStyle;exitX=1;exitY=0.5;exitDx=0;exitDy=0;entryX=0.5;entryY=1;entryDx=0;entryDy=0;entryPerimeter=0;" parent="1" source="DNZP7xRx3pJeG5CFFN4x-3" target="lDetADTVNN6YPPrge81u-1" edge="1">
          <mxGeometry width="50" height="50" relative="1" as="geometry">
            <mxPoint x="240" y="380" as="sourcePoint" />
            <mxPoint x="310" y="260" as="targetPoint" />
            <Array as="points">
              <mxPoint x="300" y="372" />
            </Array>
          </mxGeometry>
        </mxCell>
        <mxCell id="DNZP7xRx3pJeG5CFFN4x-19" value="Validity of &lt;br&gt;credentials" style="edgeLabel;html=1;align=center;verticalAlign=middle;resizable=0;points=[];labelBackgroundColor=none;" parent="DNZP7xRx3pJeG5CFFN4x-18" vertex="1" connectable="0">
          <mxGeometry x="0.0767" y="4" relative="1" as="geometry">
            <mxPoint x="-55.99999999999999" y="-32.57" as="offset" />
          </mxGeometry>
        </mxCell>
        <mxCell id="DNZP7xRx3pJeG5CFFN4x-20" value="" style="curved=1;endArrow=none;html=1;fontSize=6;edgeStyle=orthogonalEdgeStyle;exitX=0.5;exitY=0;exitDx=0;exitDy=0;exitPerimeter=0;entryX=0.5;entryY=0;entryDx=0;entryDy=0;startArrow=classic;startFill=1;endFill=0;" parent="1" source="lDetADTVNN6YPPrge81u-3" target="DNZP7xRx3pJeG5CFFN4x-6" edge="1">
          <mxGeometry width="50" height="50" relative="1" as="geometry">
            <mxPoint x="417.30000000000007" y="245.5" as="sourcePoint" />
            <mxPoint x="450.5" y="250" as="targetPoint" />
            <Array as="points">
              <mxPoint x="514.5" y="40" />
              <mxPoint x="730.5" y="40" />
            </Array>
          </mxGeometry>
        </mxCell>
        <mxCell id="DNZP7xRx3pJeG5CFFN4x-22" value="User Identity,&lt;br&gt;Deposit amount" style="edgeLabel;html=1;align=center;verticalAlign=middle;resizable=0;points=[];labelBackgroundColor=none;" parent="DNZP7xRx3pJeG5CFFN4x-20" vertex="1" connectable="0">
          <mxGeometry x="-0.2346" y="-3" relative="1" as="geometry">
            <mxPoint x="-75.5" y="139" as="offset" />
          </mxGeometry>
        </mxCell>
        <mxCell id="DNZP7xRx3pJeG5CFFN4x-23" value="" style="curved=1;endArrow=none;html=1;fontSize=6;edgeStyle=orthogonalEdgeStyle;exitX=0.16;exitY=0.033;exitDx=0;exitDy=0;startArrow=classic;startFill=1;endFill=0;exitPerimeter=0;" parent="1" source="DNZP7xRx3pJeG5CFFN4x-6" target="lDetADTVNN6YPPrge81u-3" edge="1">
          <mxGeometry width="50" height="50" relative="1" as="geometry">
            <mxPoint x="450.5" y="220" as="sourcePoint" />
            <mxPoint x="520.5" y="280" as="targetPoint" />
            <Array as="points">
              <mxPoint x="683" y="200" />
              <mxPoint x="515" y="200" />
            </Array>
          </mxGeometry>
        </mxCell>
        <mxCell id="DNZP7xRx3pJeG5CFFN4x-24" value="Validity of deposit,&lt;br&gt;New balance" style="edgeLabel;html=1;align=center;verticalAlign=middle;resizable=0;points=[];labelBackgroundColor=none;" parent="DNZP7xRx3pJeG5CFFN4x-23" vertex="1" connectable="0">
          <mxGeometry x="0.102" y="2" relative="1" as="geometry">
            <mxPoint x="158.12" y="38" as="offset" />
          </mxGeometry>
        </mxCell>
        <mxCell id="lDetADTVNN6YPPrge81u-1" value="Login" style="strokeWidth=2;html=1;shape=mxgraph.flowchart.start_2;whiteSpace=wrap;" parent="1" vertex="1">
          <mxGeometry x="250" y="150" width="100" height="100" as="geometry" />
        </mxCell>
        <mxCell id="lDetADTVNN6YPPrge81u-2" value="" style="curved=1;endArrow=classic;html=1;fontSize=6;edgeStyle=orthogonalEdgeStyle;entryX=0.025;entryY=0.602;entryDx=0;entryDy=0;entryPerimeter=0;" parent="1" target="lDetADTVNN6YPPrge81u-3" edge="1">
          <mxGeometry width="50" height="50" relative="1" as="geometry">
            <mxPoint x="460.5" y="210" as="sourcePoint" />
            <mxPoint x="440.5" y="200" as="targetPoint" />
            <Array as="points">
              <mxPoint x="450.5" y="200" />
              <mxPoint x="450.5" y="130" />
            </Array>
          </mxGeometry>
        </mxCell>
        <mxCell id="lDetADTVNN6YPPrge81u-20" value="Deposit decision,&lt;br&gt;ID, amount" style="edgeLabel;html=1;align=center;verticalAlign=middle;resizable=0;points=[];labelBackgroundColor=none;" parent="lDetADTVNN6YPPrge81u-2" vertex="1" connectable="0">
          <mxGeometry x="0.145" y="1" relative="1" as="geometry">
            <mxPoint x="-41.5" y="0.8300000000000001" as="offset" />
          </mxGeometry>
        </mxCell>
        <mxCell id="lDetADTVNN6YPPrge81u-3" value="Deposit" style="strokeWidth=2;html=1;shape=mxgraph.flowchart.start_2;whiteSpace=wrap;" parent="1" vertex="1">
          <mxGeometry x="464.5" y="70" width="100" height="100" as="geometry" />
        </mxCell>
        <mxCell id="lDetADTVNN6YPPrge81u-4" value="" style="curved=1;endArrow=classic;html=1;fontSize=6;edgeStyle=orthogonalEdgeStyle;entryX=0.5;entryY=0;entryDx=0;entryDy=0;entryPerimeter=0;exitX=0.5;exitY=1;exitDx=0;exitDy=0;exitPerimeter=0;" parent="1" source="lDetADTVNN6YPPrge81u-15" target="lDetADTVNN6YPPrge81u-5" edge="1">
          <mxGeometry width="50" height="50" relative="1" as="geometry">
            <mxPoint x="420.5" y="310" as="sourcePoint" />
            <mxPoint x="490.5" y="320" as="targetPoint" />
            <Array as="points">
              <mxPoint x="450.5" y="320" />
              <mxPoint x="390.5" y="320" />
            </Array>
          </mxGeometry>
        </mxCell>
        <mxCell id="lDetADTVNN6YPPrge81u-19" value="Withdrawl decision,&lt;br&gt;ID, amount" style="edgeLabel;html=1;align=center;verticalAlign=middle;resizable=0;points=[];labelBackgroundColor=none;" parent="lDetADTVNN6YPPrge81u-4" vertex="1" connectable="0">
          <mxGeometry x="0.0433" y="1" relative="1" as="geometry">
            <mxPoint x="51" y="40.72" as="offset" />
          </mxGeometry>
        </mxCell>
        <mxCell id="lDetADTVNN6YPPrge81u-5" value="Withdraw" style="strokeWidth=2;html=1;shape=mxgraph.flowchart.start_2;whiteSpace=wrap;" parent="1" vertex="1">
          <mxGeometry x="340" y="398" width="100" height="100" as="geometry" />
        </mxCell>
        <mxCell id="lDetADTVNN6YPPrge81u-6" value="" style="curved=1;endArrow=classic;html=1;fontSize=6;edgeStyle=orthogonalEdgeStyle;exitX=1;exitY=0.5;exitDx=0;exitDy=0;exitPerimeter=0;entryX=-0.001;entryY=0.114;entryDx=0;entryDy=0;entryPerimeter=0;" parent="1" source="lDetADTVNN6YPPrge81u-15" target="DNZP7xRx3pJeG5CFFN4x-6" edge="1">
          <mxGeometry width="50" height="50" relative="1" as="geometry">
            <mxPoint x="580.5" y="280" as="sourcePoint" />
            <mxPoint x="660.5" y="320.0344827586207" as="targetPoint" />
            <Array as="points">
              <mxPoint x="501" y="230" />
              <mxPoint x="630" y="230" />
              <mxPoint x="630" y="299" />
            </Array>
          </mxGeometry>
        </mxCell>
        <mxCell id="lDetADTVNN6YPPrge81u-7" value="ID" style="edgeLabel;html=1;align=center;verticalAlign=middle;resizable=0;points=[];labelBackgroundColor=none;" parent="lDetADTVNN6YPPrge81u-6" vertex="1" connectable="0">
          <mxGeometry x="-0.1492" y="-9" relative="1" as="geometry">
            <mxPoint x="-36.169999999999995" y="-15" as="offset" />
          </mxGeometry>
        </mxCell>
        <mxCell id="lDetADTVNN6YPPrge81u-8" value="" style="curved=1;endArrow=classic;html=1;fontSize=6;edgeStyle=orthogonalEdgeStyle;exitX=0;exitY=0.371;exitDx=0;exitDy=0;entryX=0.998;entryY=0.556;entryDx=0;entryDy=0;entryPerimeter=0;exitPerimeter=0;" parent="1" source="DNZP7xRx3pJeG5CFFN4x-6" target="lDetADTVNN6YPPrge81u-15" edge="1">
          <mxGeometry width="50" height="50" relative="1" as="geometry">
            <mxPoint x="620.5" y="340" as="sourcePoint" />
            <mxPoint x="501" y="264" as="targetPoint" />
            <Array as="points">
              <mxPoint x="620" y="314" />
              <mxPoint x="620" y="250" />
              <mxPoint x="520" y="250" />
              <mxPoint x="520" y="256" />
            </Array>
          </mxGeometry>
        </mxCell>
        <mxCell id="lDetADTVNN6YPPrge81u-9" value="Balance" style="edgeLabel;html=1;align=center;verticalAlign=middle;resizable=0;points=[];labelBackgroundColor=none;" parent="lDetADTVNN6YPPrge81u-8" vertex="1" connectable="0">
          <mxGeometry x="0.0922" y="-1" relative="1" as="geometry">
            <mxPoint x="-28.21" y="11" as="offset" />
          </mxGeometry>
        </mxCell>
        <mxCell id="lDetADTVNN6YPPrge81u-10" value="" style="curved=1;endArrow=classic;html=1;fontSize=6;edgeStyle=orthogonalEdgeStyle;entryX=0.5;entryY=1;entryDx=0;entryDy=0;exitX=0.981;exitY=0.343;exitDx=0;exitDy=0;exitPerimeter=0;" parent="1" source="lDetADTVNN6YPPrge81u-5" target="DNZP7xRx3pJeG5CFFN4x-6" edge="1">
          <mxGeometry width="50" height="50" relative="1" as="geometry">
            <mxPoint x="480" y="348" as="sourcePoint" />
            <mxPoint x="695" y="390" as="targetPoint" />
            <Array as="points">
              <mxPoint x="438" y="428" />
              <mxPoint x="720" y="428" />
              <mxPoint x="720" y="352" />
            </Array>
          </mxGeometry>
        </mxCell>
        <mxCell id="lDetADTVNN6YPPrge81u-11" value="User Identity,&lt;br&gt;Withdrawl amount" style="edgeLabel;html=1;align=center;verticalAlign=middle;resizable=0;points=[];labelBackgroundColor=none;" parent="lDetADTVNN6YPPrge81u-10" vertex="1" connectable="0">
          <mxGeometry x="-0.1317" y="2" relative="1" as="geometry">
            <mxPoint x="-45.7" as="offset" />
          </mxGeometry>
        </mxCell>
        <mxCell id="lDetADTVNN6YPPrge81u-12" value="" style="curved=1;endArrow=classic;html=1;fontSize=6;edgeStyle=orthogonalEdgeStyle;entryX=1;entryY=0.5;entryDx=0;entryDy=0;entryPerimeter=0;" parent="1" target="lDetADTVNN6YPPrge81u-5" edge="1">
          <mxGeometry width="50" height="50" relative="1" as="geometry">
            <mxPoint x="779.5" y="350" as="sourcePoint" />
            <mxPoint x="620.5" y="330" as="targetPoint" />
            <Array as="points">
              <mxPoint x="780" y="470" />
              <mxPoint x="470" y="470" />
              <mxPoint x="470" y="448" />
            </Array>
          </mxGeometry>
        </mxCell>
        <mxCell id="lDetADTVNN6YPPrge81u-13" value="" style="curved=1;endArrow=classic;html=1;fontSize=6;edgeStyle=orthogonalEdgeStyle;entryX=0.5;entryY=1;entryDx=0;entryDy=0;exitX=0.145;exitY=0.145;exitDx=0;exitDy=0;exitPerimeter=0;" parent="1" source="lDetADTVNN6YPPrge81u-3" target="DNZP7xRx3pJeG5CFFN4x-8" edge="1">
          <mxGeometry width="50" height="50" relative="1" as="geometry">
            <mxPoint x="420" y="90" as="sourcePoint" />
            <mxPoint x="140" y="110" as="targetPoint" />
            <Array as="points">
              <mxPoint x="420" y="85" />
              <mxPoint x="420" y="10" />
              <mxPoint x="50" y="10" />
              <mxPoint x="50" y="140" />
              <mxPoint x="160" y="140" />
            </Array>
          </mxGeometry>
        </mxCell>
        <mxCell id="lDetADTVNN6YPPrge81u-24" value="Balance" style="edgeLabel;html=1;align=center;verticalAlign=middle;resizable=0;points=[];labelBackgroundColor=none;" parent="lDetADTVNN6YPPrge81u-13" vertex="1" connectable="0">
          <mxGeometry x="-0.7147" y="14" relative="1" as="geometry">
            <mxPoint x="-176" y="418.5" as="offset" />
          </mxGeometry>
        </mxCell>
        <mxCell id="lDetADTVNN6YPPrge81u-25" value="Balance" style="edgeLabel;html=1;align=center;verticalAlign=middle;resizable=0;points=[];labelBackgroundColor=none;" parent="lDetADTVNN6YPPrge81u-13" vertex="1" connectable="0">
          <mxGeometry x="-0.7043" y="17" relative="1" as="geometry">
            <mxPoint x="41" y="20.5" as="offset" />
          </mxGeometry>
        </mxCell>
        <mxCell id="lDetADTVNN6YPPrge81u-15" value="Menu" style="strokeWidth=2;html=1;shape=mxgraph.flowchart.start_2;whiteSpace=wrap;labelBackgroundColor=none;" parent="1" vertex="1">
          <mxGeometry x="400.5" y="200.00000000000003" width="100" height="100" as="geometry" />
        </mxCell>
        <mxCell id="lDetADTVNN6YPPrge81u-16" value="" style="curved=1;endArrow=classic;html=1;fontSize=6;edgeStyle=orthogonalEdgeStyle;exitX=1;exitY=0.5;exitDx=0;exitDy=0;exitPerimeter=0;entryX=0;entryY=0.5;entryDx=0;entryDy=0;entryPerimeter=0;" parent="1" source="lDetADTVNN6YPPrge81u-1" target="lDetADTVNN6YPPrge81u-15" edge="1">
          <mxGeometry width="50" height="50" relative="1" as="geometry">
            <mxPoint x="386" y="235.5" as="sourcePoint" />
            <mxPoint x="510.5" y="280" as="targetPoint" />
            <Array as="points">
              <mxPoint x="387" y="200" />
              <mxPoint x="387" y="250" />
            </Array>
          </mxGeometry>
        </mxCell>
        <mxCell id="lDetADTVNN6YPPrge81u-21" value="Correct, &lt;br&gt;ID" style="edgeLabel;html=1;align=center;verticalAlign=middle;resizable=0;points=[];labelBackgroundColor=none;" parent="lDetADTVNN6YPPrge81u-16" vertex="1" connectable="0">
          <mxGeometry x="-0.4598" y="-4" relative="1" as="geometry">
            <mxPoint x="-9" y="26" as="offset" />
          </mxGeometry>
        </mxCell>
        <mxCell id="lDetADTVNN6YPPrge81u-18" value="Validity of withdrawl,&amp;nbsp;&lt;br&gt;New balance" style="text;html=1;align=center;verticalAlign=middle;resizable=0;points=[];autosize=1;" parent="1" vertex="1">
          <mxGeometry x="540" y="468" width="130" height="30" as="geometry" />
        </mxCell>
        <mxCell id="lDetADTVNN6YPPrge81u-22" value="" style="curved=1;endArrow=classic;html=1;fontSize=6;edgeStyle=orthogonalEdgeStyle;exitX=0.145;exitY=0.145;exitDx=0;exitDy=0;exitPerimeter=0;entryX=0.5;entryY=1;entryDx=0;entryDy=0;" parent="1" source="lDetADTVNN6YPPrge81u-1" target="DNZP7xRx3pJeG5CFFN4x-8" edge="1">
          <mxGeometry width="50" height="50" relative="1" as="geometry">
            <mxPoint x="420" y="300" as="sourcePoint" />
            <mxPoint x="460" y="320" as="targetPoint" />
            <Array as="points">
              <mxPoint x="265" y="150" />
              <mxPoint x="160" y="150" />
            </Array>
          </mxGeometry>
        </mxCell>
        <mxCell id="lDetADTVNN6YPPrge81u-27" value="0" style="text;html=1;align=center;verticalAlign=middle;resizable=0;points=[];autosize=1;" parent="1" vertex="1">
          <mxGeometry x="150" y="90" width="20" height="20" as="geometry" />
        </mxCell>
        <mxCell id="lDetADTVNN6YPPrge81u-28" value="1" style="text;html=1;align=center;verticalAlign=middle;resizable=0;points=[];autosize=1;" parent="1" vertex="1">
          <mxGeometry x="290" y="220" width="20" height="20" as="geometry" />
        </mxCell>
        <mxCell id="lDetADTVNN6YPPrge81u-29" value="2" style="text;html=1;align=center;verticalAlign=middle;resizable=0;points=[];autosize=1;" parent="1" vertex="1">
          <mxGeometry x="440.5" y="270" width="20" height="20" as="geometry" />
        </mxCell>
        <mxCell id="lDetADTVNN6YPPrge81u-30" value="3" style="text;html=1;align=center;verticalAlign=middle;resizable=0;points=[];autosize=1;" parent="1" vertex="1">
          <mxGeometry x="380" y="468" width="20" height="20" as="geometry" />
        </mxCell>
        <mxCell id="lDetADTVNN6YPPrge81u-31" value="4" style="text;html=1;align=center;verticalAlign=middle;resizable=0;points=[];autosize=1;" parent="1" vertex="1">
          <mxGeometry x="504.5" y="140" width="20" height="20" as="geometry" />
        </mxCell>
        <mxCell id="lDetADTVNN6YPPrge81u-32" value="Check validity" style="strokeWidth=2;html=1;shape=mxgraph.flowchart.start_2;whiteSpace=wrap;labelBackgroundColor=none;" parent="1" vertex="1">
          <mxGeometry x="170" y="610" width="100" height="100" as="geometry" />
        </mxCell>
        <mxCell id="lDetADTVNN6YPPrge81u-33" value="" style="curved=1;endArrow=classic;html=1;fontSize=6;edgeStyle=orthogonalEdgeStyle;entryX=0;entryY=0.5;entryDx=0;entryDy=0;entryPerimeter=0;" parent="1" target="lDetADTVNN6YPPrge81u-32" edge="1">
          <mxGeometry width="50" height="50" relative="1" as="geometry">
            <mxPoint x="90" y="620" as="sourcePoint" />
            <mxPoint x="140" y="640" as="targetPoint" />
            <Array as="points">
              <mxPoint x="120" y="620" />
              <mxPoint x="120" y="660" />
            </Array>
          </mxGeometry>
        </mxCell>
        <mxCell id="lDetADTVNN6YPPrge81u-34" value="Decision to&lt;br&gt;deposit, ID, &lt;br&gt;deposit amount" style="edgeLabel;html=1;align=center;verticalAlign=middle;resizable=0;points=[];" parent="lDetADTVNN6YPPrge81u-33" vertex="1" connectable="0">
          <mxGeometry x="-0.0873" relative="1" as="geometry">
            <mxPoint x="-59.97" y="-24.55" as="offset" />
          </mxGeometry>
        </mxCell>
        <mxCell id="lDetADTVNN6YPPrge81u-35" value="4.1" style="text;html=1;align=center;verticalAlign=middle;resizable=0;points=[];autosize=1;" parent="1" vertex="1">
          <mxGeometry x="205" y="670" width="30" height="20" as="geometry" />
        </mxCell>
        <mxCell id="lDetADTVNN6YPPrge81u-36" value="Make deposit" style="strokeWidth=2;html=1;shape=mxgraph.flowchart.start_2;whiteSpace=wrap;labelBackgroundColor=none;" parent="1" vertex="1">
          <mxGeometry x="310" y="610" width="100" height="100" as="geometry" />
        </mxCell>
        <mxCell id="lDetADTVNN6YPPrge81u-37" value="" style="curved=1;endArrow=classic;html=1;fontSize=6;edgeStyle=orthogonalEdgeStyle;entryX=0;entryY=0.5;entryDx=0;entryDy=0;entryPerimeter=0;" parent="1" target="lDetADTVNN6YPPrge81u-36" edge="1">
          <mxGeometry width="50" height="50" relative="1" as="geometry">
            <mxPoint x="270" y="660" as="sourcePoint" />
            <mxPoint x="310" y="680" as="targetPoint" />
            <Array as="points" />
          </mxGeometry>
        </mxCell>
        <mxCell id="lDetADTVNN6YPPrge81u-41" value="" style="curved=1;endArrow=classic;html=1;fontSize=6;edgeStyle=orthogonalEdgeStyle;entryX=0;entryY=0.5;entryDx=0;entryDy=0;" parent="1" edge="1">
          <mxGeometry width="50" height="50" relative="1" as="geometry">
            <mxPoint x="210" y="710" as="sourcePoint" />
            <mxPoint x="230" y="810" as="targetPoint" />
            <Array as="points">
              <mxPoint x="190" y="710" />
              <mxPoint x="190" y="810" />
            </Array>
          </mxGeometry>
        </mxCell>
        <mxCell id="lDetADTVNN6YPPrge81u-58" value="amount" style="edgeLabel;html=1;align=center;verticalAlign=middle;resizable=0;points=[];labelBackgroundColor=none;" parent="lDetADTVNN6YPPrge81u-41" vertex="1" connectable="0">
          <mxGeometry x="0.0733" relative="1" as="geometry">
            <mxPoint x="-20" y="-36" as="offset" />
          </mxGeometry>
        </mxCell>
        <mxCell id="lDetADTVNN6YPPrge81u-43" value="Check history" style="strokeWidth=2;html=1;shape=mxgraph.flowchart.start_2;whiteSpace=wrap;labelBackgroundColor=none;" parent="1" vertex="1">
          <mxGeometry x="524.5" y="298" width="100" height="100" as="geometry" />
        </mxCell>
        <mxCell id="lDetADTVNN6YPPrge81u-44" value="" style="curved=1;endArrow=classic;html=1;fontSize=6;edgeStyle=orthogonalEdgeStyle;exitX=0.953;exitY=0.693;exitDx=0;exitDy=0;exitPerimeter=0;entryX=0.145;entryY=0.145;entryDx=0;entryDy=0;entryPerimeter=0;" parent="1" source="lDetADTVNN6YPPrge81u-15" target="lDetADTVNN6YPPrge81u-43" edge="1">
          <mxGeometry width="50" height="50" relative="1" as="geometry">
            <mxPoint x="510" y="290" as="sourcePoint" />
            <mxPoint x="550" y="310" as="targetPoint" />
            <Array as="points">
              <mxPoint x="539" y="269" />
            </Array>
          </mxGeometry>
        </mxCell>
        <mxCell id="lDetADTVNN6YPPrge81u-47" value="ID" style="edgeLabel;html=1;align=center;verticalAlign=middle;resizable=0;points=[];labelBackgroundColor=none;" parent="lDetADTVNN6YPPrge81u-44" vertex="1" connectable="0">
          <mxGeometry x="0.0206" y="3" relative="1" as="geometry">
            <mxPoint x="-17.5" y="19.71" as="offset" />
          </mxGeometry>
        </mxCell>
        <mxCell id="lDetADTVNN6YPPrge81u-45" value="" style="curved=1;endArrow=classic;html=1;fontSize=6;edgeStyle=orthogonalEdgeStyle;entryX=0.674;entryY=0.977;entryDx=0;entryDy=0;entryPerimeter=0;exitX=0;exitY=0.5;exitDx=0;exitDy=0;exitPerimeter=0;" parent="1" source="lDetADTVNN6YPPrge81u-43" target="lDetADTVNN6YPPrge81u-15" edge="1">
          <mxGeometry width="50" height="50" relative="1" as="geometry">
            <mxPoint x="521" y="330" as="sourcePoint" />
            <mxPoint x="540" y="350" as="targetPoint" />
            <Array as="points">
              <mxPoint x="468" y="348" />
            </Array>
          </mxGeometry>
        </mxCell>
        <mxCell id="lDetADTVNN6YPPrge81u-46" value="history" style="edgeLabel;html=1;align=center;verticalAlign=middle;resizable=0;points=[];labelBackgroundColor=none;" parent="lDetADTVNN6YPPrge81u-45" vertex="1" connectable="0">
          <mxGeometry x="0.1704" relative="1" as="geometry">
            <mxPoint x="22.67" y="-21.93" as="offset" />
          </mxGeometry>
        </mxCell>
        <mxCell id="lDetADTVNN6YPPrge81u-48" value="" style="curved=1;endArrow=classic;html=1;fontSize=6;edgeStyle=orthogonalEdgeStyle;exitX=0.977;exitY=0.327;exitDx=0;exitDy=0;exitPerimeter=0;entryX=0.01;entryY=0.643;entryDx=0;entryDy=0;entryPerimeter=0;" parent="1" source="lDetADTVNN6YPPrge81u-43" target="DNZP7xRx3pJeG5CFFN4x-6" edge="1">
          <mxGeometry width="50" height="50" relative="1" as="geometry">
            <mxPoint x="640" y="340" as="sourcePoint" />
            <mxPoint x="680" y="360" as="targetPoint" />
            <Array as="points" />
          </mxGeometry>
        </mxCell>
        <mxCell id="lDetADTVNN6YPPrge81u-49" value="ID" style="edgeLabel;html=1;align=center;verticalAlign=middle;resizable=0;points=[];" parent="lDetADTVNN6YPPrge81u-48" vertex="1" connectable="0">
          <mxGeometry x="-0.0816" y="1" relative="1" as="geometry">
            <mxPoint y="-8" as="offset" />
          </mxGeometry>
        </mxCell>
        <mxCell id="lDetADTVNN6YPPrge81u-50" value="" style="curved=1;endArrow=classic;html=1;fontSize=6;edgeStyle=orthogonalEdgeStyle;entryX=0.982;entryY=0.666;entryDx=0;entryDy=0;entryPerimeter=0;exitX=0.203;exitY=1.001;exitDx=0;exitDy=0;exitPerimeter=0;" parent="1" source="DNZP7xRx3pJeG5CFFN4x-6" target="lDetADTVNN6YPPrge81u-43" edge="1">
          <mxGeometry width="50" height="50" relative="1" as="geometry">
            <mxPoint x="590" y="340" as="sourcePoint" />
            <mxPoint x="630" y="360" as="targetPoint" />
            <Array as="points">
              <mxPoint x="689" y="365" />
              <mxPoint x="630" y="365" />
            </Array>
          </mxGeometry>
        </mxCell>
        <mxCell id="lDetADTVNN6YPPrge81u-51" value="history" style="edgeLabel;html=1;align=center;verticalAlign=middle;resizable=0;points=[];" parent="lDetADTVNN6YPPrge81u-50" vertex="1" connectable="0">
          <mxGeometry x="-0.2004" relative="1" as="geometry">
            <mxPoint x="-9.92" y="7" as="offset" />
          </mxGeometry>
        </mxCell>
        <mxCell id="lDetADTVNN6YPPrge81u-52" value="5" style="text;html=1;align=center;verticalAlign=middle;resizable=0;points=[];autosize=1;" parent="1" vertex="1">
          <mxGeometry x="564.5" y="362" width="20" height="20" as="geometry" />
        </mxCell>
        <mxCell id="lDetADTVNN6YPPrge81u-55" value="4.2" style="text;html=1;align=center;verticalAlign=middle;resizable=0;points=[];autosize=1;" parent="1" vertex="1">
          <mxGeometry x="345" y="670" width="30" height="20" as="geometry" />
        </mxCell>
        <mxCell id="lDetADTVNN6YPPrge81u-56" value="" style="curved=1;endArrow=classic;html=1;fontSize=6;edgeStyle=orthogonalEdgeStyle;entryX=0.855;entryY=0.855;entryDx=0;entryDy=0;entryPerimeter=0;" parent="1" target="lDetADTVNN6YPPrge81u-32" edge="1">
          <mxGeometry width="50" height="50" relative="1" as="geometry">
            <mxPoint x="280" y="780" as="sourcePoint" />
            <mxPoint x="310" y="750" as="targetPoint" />
            <Array as="points">
              <mxPoint x="280" y="780" />
              <mxPoint x="280" y="696" />
            </Array>
          </mxGeometry>
        </mxCell>
        <mxCell id="lDetADTVNN6YPPrge81u-57" value="validity" style="edgeLabel;html=1;align=center;verticalAlign=middle;resizable=0;points=[];" parent="lDetADTVNN6YPPrge81u-56" vertex="1" connectable="0">
          <mxGeometry x="-0.1797" relative="1" as="geometry">
            <mxPoint x="-20" y="24.8" as="offset" />
          </mxGeometry>
        </mxCell>
        <mxCell id="lDetADTVNN6YPPrge81u-59" value="" style="curved=1;endArrow=classic;html=1;fontSize=6;edgeStyle=orthogonalEdgeStyle;exitX=0.352;exitY=0.99;exitDx=0;exitDy=0;exitPerimeter=0;entryX=0.75;entryY=0;entryDx=0;entryDy=0;" parent="1" source="lDetADTVNN6YPPrge81u-36" target="lDetADTVNN6YPPrge81u-66" edge="1">
          <mxGeometry width="50" height="50" relative="1" as="geometry">
            <mxPoint x="330" y="730" as="sourcePoint" />
            <mxPoint x="320" y="780" as="targetPoint" />
            <Array as="points">
              <mxPoint x="345" y="740" />
              <mxPoint x="320" y="740" />
            </Array>
          </mxGeometry>
        </mxCell>
        <mxCell id="lDetADTVNN6YPPrge81u-60" value="ID, amount" style="edgeLabel;html=1;align=center;verticalAlign=middle;resizable=0;points=[];labelBackgroundColor=none;" parent="lDetADTVNN6YPPrge81u-59" vertex="1" connectable="0">
          <mxGeometry x="-0.0057" y="5" relative="1" as="geometry">
            <mxPoint x="43.629999999999995" y="-15" as="offset" />
          </mxGeometry>
        </mxCell>
        <mxCell id="lDetADTVNN6YPPrge81u-61" value="" style="curved=1;endArrow=classic;html=1;fontSize=6;edgeStyle=orthogonalEdgeStyle;entryX=0.959;entryY=0.706;entryDx=0;entryDy=0;entryPerimeter=0;" parent="1" source="lDetADTVNN6YPPrge81u-66" target="lDetADTVNN6YPPrge81u-36" edge="1">
          <mxGeometry width="50" height="50" relative="1" as="geometry">
            <mxPoint x="360" y="790" as="sourcePoint" />
            <mxPoint x="420" y="770" as="targetPoint" />
            <Array as="points">
              <mxPoint x="460" y="795" />
              <mxPoint x="460" y="681" />
            </Array>
          </mxGeometry>
        </mxCell>
        <mxCell id="lDetADTVNN6YPPrge81u-62" value="new balance" style="edgeLabel;html=1;align=center;verticalAlign=middle;resizable=0;points=[];labelBackgroundColor=none;" parent="lDetADTVNN6YPPrge81u-61" vertex="1" connectable="0">
          <mxGeometry x="-0.5815" y="6" relative="1" as="geometry">
            <mxPoint x="55.57000000000001" y="-3" as="offset" />
          </mxGeometry>
        </mxCell>
        <mxCell id="lDetADTVNN6YPPrge81u-65" value="" style="group;labelBackgroundColor=none;" parent="1" vertex="1" connectable="0">
          <mxGeometry x="230" y="780" width="120" height="64" as="geometry" />
        </mxCell>
        <mxCell id="lDetADTVNN6YPPrge81u-66" value="User Balances" style="rounded=0;whiteSpace=wrap;html=1;strokeWidth=2;" parent="lDetADTVNN6YPPrge81u-65" vertex="1">
          <mxGeometry y="2" width="120" height="60" as="geometry" />
        </mxCell>
        <mxCell id="lDetADTVNN6YPPrge81u-67" value="" style="endArrow=none;html=1;strokeWidth=3;strokeColor=#FFFFFF;endSize=7;startSize=10;rounded=0;jumpSize=3;" parent="lDetADTVNN6YPPrge81u-65" edge="1">
          <mxGeometry width="50" height="50" relative="1" as="geometry">
            <mxPoint x="120" y="64" as="sourcePoint" />
            <mxPoint x="120" as="targetPoint" />
          </mxGeometry>
        </mxCell>
        <mxCell id="lDetADTVNN6YPPrge81u-68" value="" style="curved=1;endArrow=classic;html=1;fontSize=6;edgeStyle=orthogonalEdgeStyle;exitX=1;exitY=0.5;exitDx=0;exitDy=0;exitPerimeter=0;" parent="1" source="lDetADTVNN6YPPrge81u-36" edge="1">
          <mxGeometry width="50" height="50" relative="1" as="geometry">
            <mxPoint x="570" y="760" as="sourcePoint" />
            <mxPoint x="540" y="630" as="targetPoint" />
            <Array as="points">
              <mxPoint x="480" y="660" />
              <mxPoint x="480" y="630" />
            </Array>
          </mxGeometry>
        </mxCell>
        <mxCell id="lDetADTVNN6YPPrge81u-69" value="new balance" style="edgeLabel;html=1;align=center;verticalAlign=middle;resizable=0;points=[];labelBackgroundColor=none;" parent="lDetADTVNN6YPPrge81u-68" vertex="1" connectable="0">
          <mxGeometry x="-0.1064" y="2" relative="1" as="geometry">
            <mxPoint x="96.47" y="-28.340000000000003" as="offset" />
          </mxGeometry>
        </mxCell>
      </root>
    </mxGraphModel>
  </diagram>
  <diagram id="ZZBaNJOqhxRFfaWbpdSK" name="Context Diagram">
    <mxGraphModel dx="1209" dy="627" grid="1" gridSize="10" guides="1" tooltips="1" connect="1" arrows="1" fold="1" page="1" pageScale="1" pageWidth="827" pageHeight="1169" math="0" shadow="0">
      <root>
        <mxCell id="ra8PC0ORaxS_xf7rytrG-0" />
        <mxCell id="ra8PC0ORaxS_xf7rytrG-1" parent="ra8PC0ORaxS_xf7rytrG-0" />
        <mxCell id="1V2MW9h32SBhmgLQW8NA-4" style="edgeStyle=orthogonalEdgeStyle;curved=1;rounded=0;orthogonalLoop=1;jettySize=auto;html=1;exitX=0.5;exitY=1;exitDx=0;exitDy=0;entryX=0.75;entryY=1;entryDx=0;entryDy=0;" edge="1" parent="ra8PC0ORaxS_xf7rytrG-1" source="1V2MW9h32SBhmgLQW8NA-0" target="1V2MW9h32SBhmgLQW8NA-1">
          <mxGeometry relative="1" as="geometry">
            <Array as="points">
              <mxPoint x="640" y="730" />
              <mxPoint x="240" y="730" />
            </Array>
          </mxGeometry>
        </mxCell>
        <mxCell id="1V2MW9h32SBhmgLQW8NA-5" value="Menu/Exit" style="edgeLabel;html=1;align=center;verticalAlign=middle;resizable=0;points=[];" vertex="1" connectable="0" parent="1V2MW9h32SBhmgLQW8NA-4">
          <mxGeometry x="-0.1786" y="1" relative="1" as="geometry">
            <mxPoint x="-9" as="offset" />
          </mxGeometry>
        </mxCell>
        <mxCell id="1V2MW9h32SBhmgLQW8NA-15" style="edgeStyle=orthogonalEdgeStyle;curved=1;rounded=0;orthogonalLoop=1;jettySize=auto;html=1;exitX=0;exitY=1;exitDx=0;exitDy=0;entryX=1;entryY=1;entryDx=0;entryDy=0;" edge="1" parent="ra8PC0ORaxS_xf7rytrG-1" source="1V2MW9h32SBhmgLQW8NA-0" target="1V2MW9h32SBhmgLQW8NA-1">
          <mxGeometry relative="1" as="geometry">
            <Array as="points">
              <mxPoint x="612" y="680" />
              <mxPoint x="270" y="680" />
            </Array>
          </mxGeometry>
        </mxCell>
        <mxCell id="1V2MW9h32SBhmgLQW8NA-18" value="Balance" style="edgeLabel;html=1;align=center;verticalAlign=middle;resizable=0;points=[];" vertex="1" connectable="0" parent="1V2MW9h32SBhmgLQW8NA-15">
          <mxGeometry x="-0.0879" y="2" relative="1" as="geometry">
            <mxPoint as="offset" />
          </mxGeometry>
        </mxCell>
        <mxCell id="1V2MW9h32SBhmgLQW8NA-16" style="edgeStyle=orthogonalEdgeStyle;curved=1;rounded=0;orthogonalLoop=1;jettySize=auto;html=1;exitX=1;exitY=1;exitDx=0;exitDy=0;entryX=0.5;entryY=1;entryDx=0;entryDy=0;" edge="1" parent="ra8PC0ORaxS_xf7rytrG-1" source="1V2MW9h32SBhmgLQW8NA-0" target="1V2MW9h32SBhmgLQW8NA-1">
          <mxGeometry relative="1" as="geometry">
            <Array as="points">
              <mxPoint x="668" y="810" />
              <mxPoint x="210" y="810" />
            </Array>
          </mxGeometry>
        </mxCell>
        <mxCell id="1V2MW9h32SBhmgLQW8NA-19" value="Receipt with deposited amount" style="edgeLabel;html=1;align=center;verticalAlign=middle;resizable=0;points=[];" vertex="1" connectable="0" parent="1V2MW9h32SBhmgLQW8NA-16">
          <mxGeometry x="-0.0662" y="-2" relative="1" as="geometry">
            <mxPoint as="offset" />
          </mxGeometry>
        </mxCell>
        <mxCell id="1V2MW9h32SBhmgLQW8NA-17" style="edgeStyle=orthogonalEdgeStyle;curved=1;rounded=0;orthogonalLoop=1;jettySize=auto;html=1;exitX=1;exitY=0.5;exitDx=0;exitDy=0;" edge="1" parent="ra8PC0ORaxS_xf7rytrG-1" source="1V2MW9h32SBhmgLQW8NA-0">
          <mxGeometry relative="1" as="geometry">
            <mxPoint x="180" y="540" as="targetPoint" />
            <Array as="points">
              <mxPoint x="700" y="585" />
              <mxPoint x="700" y="900" />
              <mxPoint x="180" y="900" />
            </Array>
          </mxGeometry>
        </mxCell>
        <mxCell id="1V2MW9h32SBhmgLQW8NA-20" value="Receipt with withdrawn amount" style="edgeLabel;html=1;align=center;verticalAlign=middle;resizable=0;points=[];" vertex="1" connectable="0" parent="1V2MW9h32SBhmgLQW8NA-17">
          <mxGeometry x="-0.0175" y="-2" relative="1" as="geometry">
            <mxPoint as="offset" />
          </mxGeometry>
        </mxCell>
        <mxCell id="1V2MW9h32SBhmgLQW8NA-21" style="edgeStyle=orthogonalEdgeStyle;curved=1;rounded=0;orthogonalLoop=1;jettySize=auto;html=1;exitX=0;exitY=0.5;exitDx=0;exitDy=0;entryX=1;entryY=0.5;entryDx=0;entryDy=0;" edge="1" parent="ra8PC0ORaxS_xf7rytrG-1" source="1V2MW9h32SBhmgLQW8NA-0" target="1V2MW9h32SBhmgLQW8NA-1">
          <mxGeometry relative="1" as="geometry">
            <Array as="points">
              <mxPoint x="610" y="460" />
              <mxPoint x="270" y="460" />
            </Array>
          </mxGeometry>
        </mxCell>
        <mxCell id="1V2MW9h32SBhmgLQW8NA-23" value="Exit" style="edgeLabel;html=1;align=center;verticalAlign=middle;resizable=0;points=[];" vertex="1" connectable="0" parent="1V2MW9h32SBhmgLQW8NA-21">
          <mxGeometry x="-0.0405" relative="1" as="geometry">
            <mxPoint as="offset" />
          </mxGeometry>
        </mxCell>
        <mxCell id="1V2MW9h32SBhmgLQW8NA-0" value="Great Bank Atm" style="ellipse;whiteSpace=wrap;html=1;aspect=fixed;" vertex="1" parent="ra8PC0ORaxS_xf7rytrG-1">
          <mxGeometry x="610" y="480" width="80" height="80" as="geometry" />
        </mxCell>
        <mxCell id="1V2MW9h32SBhmgLQW8NA-2" style="edgeStyle=orthogonalEdgeStyle;rounded=0;orthogonalLoop=1;jettySize=auto;html=1;exitX=0.75;exitY=0;exitDx=0;exitDy=0;entryX=0.5;entryY=0;entryDx=0;entryDy=0;curved=1;" edge="1" parent="ra8PC0ORaxS_xf7rytrG-1" source="1V2MW9h32SBhmgLQW8NA-1" target="1V2MW9h32SBhmgLQW8NA-0">
          <mxGeometry relative="1" as="geometry">
            <Array as="points">
              <mxPoint x="240" y="340" />
              <mxPoint x="620" y="340" />
            </Array>
          </mxGeometry>
        </mxCell>
        <mxCell id="1V2MW9h32SBhmgLQW8NA-3" value="User Login &amp;amp; Pin" style="edgeLabel;html=1;align=center;verticalAlign=middle;resizable=0;points=[];" vertex="1" connectable="0" parent="1V2MW9h32SBhmgLQW8NA-2">
          <mxGeometry x="0.1119" y="1" relative="1" as="geometry">
            <mxPoint as="offset" />
          </mxGeometry>
        </mxCell>
        <mxCell id="1V2MW9h32SBhmgLQW8NA-6" style="edgeStyle=orthogonalEdgeStyle;curved=1;rounded=0;orthogonalLoop=1;jettySize=auto;html=1;exitX=1;exitY=0;exitDx=0;exitDy=0;entryX=0;entryY=0;entryDx=0;entryDy=0;" edge="1" parent="ra8PC0ORaxS_xf7rytrG-1" source="1V2MW9h32SBhmgLQW8NA-1" target="1V2MW9h32SBhmgLQW8NA-0">
          <mxGeometry relative="1" as="geometry">
            <mxPoint x="580" y="460" as="targetPoint" />
            <Array as="points">
              <mxPoint x="270" y="390" />
              <mxPoint x="592" y="390" />
            </Array>
          </mxGeometry>
        </mxCell>
        <mxCell id="1V2MW9h32SBhmgLQW8NA-7" value="Check Balance" style="edgeLabel;html=1;align=center;verticalAlign=middle;resizable=0;points=[];" vertex="1" connectable="0" parent="1V2MW9h32SBhmgLQW8NA-6">
          <mxGeometry x="0.0172" y="3" relative="1" as="geometry">
            <mxPoint as="offset" />
          </mxGeometry>
        </mxCell>
        <mxCell id="1V2MW9h32SBhmgLQW8NA-10" style="edgeStyle=orthogonalEdgeStyle;curved=1;rounded=0;orthogonalLoop=1;jettySize=auto;html=1;exitX=0.5;exitY=0;exitDx=0;exitDy=0;entryX=1;entryY=0;entryDx=0;entryDy=0;" edge="1" parent="ra8PC0ORaxS_xf7rytrG-1" source="1V2MW9h32SBhmgLQW8NA-1" target="1V2MW9h32SBhmgLQW8NA-0">
          <mxGeometry relative="1" as="geometry">
            <Array as="points">
              <mxPoint x="210" y="270" />
              <mxPoint x="648" y="270" />
            </Array>
          </mxGeometry>
        </mxCell>
        <mxCell id="1V2MW9h32SBhmgLQW8NA-11" value="Deposit" style="edgeLabel;html=1;align=center;verticalAlign=middle;resizable=0;points=[];" vertex="1" connectable="0" parent="1V2MW9h32SBhmgLQW8NA-10">
          <mxGeometry x="0.1083" y="-6" relative="1" as="geometry">
            <mxPoint as="offset" />
          </mxGeometry>
        </mxCell>
        <mxCell id="1V2MW9h32SBhmgLQW8NA-12" style="edgeStyle=orthogonalEdgeStyle;curved=1;rounded=0;orthogonalLoop=1;jettySize=auto;html=1;exitX=0.25;exitY=0;exitDx=0;exitDy=0;entryX=1;entryY=0.5;entryDx=0;entryDy=0;" edge="1" parent="ra8PC0ORaxS_xf7rytrG-1" source="1V2MW9h32SBhmgLQW8NA-1" target="1V2MW9h32SBhmgLQW8NA-0">
          <mxGeometry relative="1" as="geometry">
            <Array as="points">
              <mxPoint x="180" y="220" />
              <mxPoint x="680" y="220" />
              <mxPoint x="680" y="520" />
            </Array>
          </mxGeometry>
        </mxCell>
        <mxCell id="1V2MW9h32SBhmgLQW8NA-13" value="Withdrawl" style="edgeLabel;html=1;align=center;verticalAlign=middle;resizable=0;points=[];" vertex="1" connectable="0" parent="1V2MW9h32SBhmgLQW8NA-12">
          <mxGeometry x="-0.0398" relative="1" as="geometry">
            <mxPoint as="offset" />
          </mxGeometry>
        </mxCell>
        <mxCell id="1V2MW9h32SBhmgLQW8NA-22" style="edgeStyle=orthogonalEdgeStyle;curved=1;rounded=0;orthogonalLoop=1;jettySize=auto;html=1;exitX=1;exitY=0.5;exitDx=0;exitDy=0;entryX=0;entryY=0.5;entryDx=0;entryDy=0;" edge="1" parent="ra8PC0ORaxS_xf7rytrG-1" source="1V2MW9h32SBhmgLQW8NA-1" target="1V2MW9h32SBhmgLQW8NA-0">
          <mxGeometry relative="1" as="geometry">
            <Array as="points">
              <mxPoint x="270" y="560" />
              <mxPoint x="610" y="560" />
            </Array>
          </mxGeometry>
        </mxCell>
        <mxCell id="1V2MW9h32SBhmgLQW8NA-24" value="Exit Code" style="edgeLabel;html=1;align=center;verticalAlign=middle;resizable=0;points=[];" vertex="1" connectable="0" parent="1V2MW9h32SBhmgLQW8NA-22">
          <mxGeometry x="0.0749" relative="1" as="geometry">
            <mxPoint as="offset" />
          </mxGeometry>
        </mxCell>
        <mxCell id="1V2MW9h32SBhmgLQW8NA-1" value="User" style="rounded=0;whiteSpace=wrap;html=1;" vertex="1" parent="ra8PC0ORaxS_xf7rytrG-1">
          <mxGeometry x="150" y="480" width="120" height="60" as="geometry" />
        </mxCell>
      </root>
    </mxGraphModel>
  </diagram>
</mxfile>
